<svg xmlns="http://www.w3.org/2000/svg" width="49.039" height="35.028" viewBox="0 0 49.039 35.028">
  <path id="Icon_fa-solid-quote-left" data-name="Icon fa-solid-quote-left" d="M0,19.885A13.132,13.132,0,0,1,13.135,6.75h.876a3.5,3.5,0,0,1,0,7.006h-.876a6.134,6.134,0,0,0-6.13,6.13v.876h7.006a7.012,7.012,0,0,1,7.006,7.006v7.006a7.012,7.012,0,0,1-7.006,7.006H7.006A7.012,7.012,0,0,1,0,34.772Zm28.022,0A13.132,13.132,0,0,1,41.158,6.75h.876a3.5,3.5,0,1,1,0,7.006h-.876a6.134,6.134,0,0,0-6.13,6.13v.876h7.006a7.012,7.012,0,0,1,7.006,7.006v7.006a7.012,7.012,0,0,1-7.006,7.006H35.028a7.012,7.012,0,0,1-7.006-7.006Z" transform="translate(0 -6.75)" fill="#ffe6d8"/>
</svg>
