<svg xmlns="http://www.w3.org/2000/svg" xmlns:xlink="http://www.w3.org/1999/xlink" width="103.106" height="18.105" viewBox="0 0 103.106 18.105">
  <defs>
    <clipPath id="clip-path">
      <rect width="103.106" height="18.106" fill="none"/>
    </clipPath>
  </defs>
  <g id="Repeat_Grid_9" data-name="Repeat Grid 9" clip-path="url(#clip-path)">
    <g transform="translate(-615.302 -3780.947)">
      <path id="Icon_akar-star" data-name="Icon akar-star" d="M11.214,3.573a.9.9,0,0,1,1.677,0l1.874,5.191a.9.9,0,0,0,.838.573h4.605a.881.881,0,0,1,.553,1.578l-3.277,2.948a.876.876,0,0,0-.291.989l1.2,5.072a.892.892,0,0,1-1.365,1.013l-4.451-2.824a.905.905,0,0,0-1.041,0L7.081,20.937a.892.892,0,0,1-1.365-1.013l1.2-5.072a.876.876,0,0,0-.291-.989L3.344,10.915A.881.881,0,0,1,3.9,9.337H8.5a.9.9,0,0,0,.838-.573l1.874-5.191Z" transform="translate(612.303 3777.947)" fill="#f8ca36"/>
    </g>
    <g transform="translate(-594.302 -3780.947)">
      <path id="Icon_akar-star-2" data-name="Icon akar-star" d="M11.214,3.573a.9.9,0,0,1,1.677,0l1.874,5.191a.9.9,0,0,0,.838.573h4.605a.881.881,0,0,1,.553,1.578l-3.277,2.948a.876.876,0,0,0-.291.989l1.2,5.072a.892.892,0,0,1-1.365,1.013l-4.451-2.824a.905.905,0,0,0-1.041,0L7.081,20.937a.892.892,0,0,1-1.365-1.013l1.2-5.072a.876.876,0,0,0-.291-.989L3.344,10.915A.881.881,0,0,1,3.9,9.337H8.5a.9.9,0,0,0,.838-.573l1.874-5.191Z" transform="translate(612.303 3777.947)" fill="#f8ca36"/>
    </g>
    <g transform="translate(-573.302 -3780.947)">
      <path id="Icon_akar-star-3" data-name="Icon akar-star" d="M11.214,3.573a.9.9,0,0,1,1.677,0l1.874,5.191a.9.9,0,0,0,.838.573h4.605a.881.881,0,0,1,.553,1.578l-3.277,2.948a.876.876,0,0,0-.291.989l1.2,5.072a.892.892,0,0,1-1.365,1.013l-4.451-2.824a.905.905,0,0,0-1.041,0L7.081,20.937a.892.892,0,0,1-1.365-1.013l1.2-5.072a.876.876,0,0,0-.291-.989L3.344,10.915A.881.881,0,0,1,3.9,9.337H8.5a.9.9,0,0,0,.838-.573l1.874-5.191Z" transform="translate(612.303 3777.947)" fill="#f8ca36"/>
    </g>
    <g transform="translate(-552.302 -3780.947)">
      <path id="Icon_akar-star-4" data-name="Icon akar-star" d="M11.214,3.573a.9.9,0,0,1,1.677,0l1.874,5.191a.9.9,0,0,0,.838.573h4.605a.881.881,0,0,1,.553,1.578l-3.277,2.948a.876.876,0,0,0-.291.989l1.2,5.072a.892.892,0,0,1-1.365,1.013l-4.451-2.824a.905.905,0,0,0-1.041,0L7.081,20.937a.892.892,0,0,1-1.365-1.013l1.2-5.072a.876.876,0,0,0-.291-.989L3.344,10.915A.881.881,0,0,1,3.9,9.337H8.5a.9.9,0,0,0,.838-.573l1.874-5.191Z" transform="translate(612.303 3777.947)" fill="#f8ca36"/>
    </g>
    <g transform="translate(-531.302 -3780.947)">
      <path id="Icon_akar-star-5" data-name="Icon akar-star" d="M11.214,3.573a.9.9,0,0,1,1.677,0l1.874,5.191a.9.9,0,0,0,.838.573h4.605a.881.881,0,0,1,.553,1.578l-3.277,2.948a.876.876,0,0,0-.291.989l1.2,5.072a.892.892,0,0,1-1.365,1.013l-4.451-2.824a.905.905,0,0,0-1.041,0L7.081,20.937a.892.892,0,0,1-1.365-1.013l1.2-5.072a.876.876,0,0,0-.291-.989L3.344,10.915A.881.881,0,0,1,3.9,9.337H8.5a.9.9,0,0,0,.838-.573l1.874-5.191Z" transform="translate(612.303 3777.947)" fill="#f8ca36"/>
    </g>
  </g>
</svg>
